<svg version="1.0" xmlns="http://www.w3.org/2000/svg"  width="229.000000pt" height="220.000000pt" viewBox="0 0 229.000000 220.000000"  preserveAspectRatio="xMidYMid meet"> <metadata> Created by potrace 1.16, written by Peter Selinger 2001-2019 </metadata> <g transform="translate(0.000000,220.000000) scale(0.100000,-0.100000)" fill="#000000" stroke="none"> <path d="M1186 2163 c-1 -1 -40 -5 -87 -8 -155 -10 -174 -12 -230 -32 -91 -31 -163 -81 -277 -193 l-107 -105 100 8 c55 4 172 7 260 5 182 -3 201 -9 249 -76 30 -41 73 -78 81 -70 2 2 -10 25 -27 51 -37 57 -40 105 -10 163 33 66 44 70 95 41 45 -27 157 -140 157 -159 0 -5 -7 -38 -16 -72 -23 -87 -13 -143 41 -249 74 -141 88 -211 87 -412 -2 -125 2 -189 14 -241 16 -69 16 -72 -10 -167 -32 -122 -76 -229 -125 -304 -42 -64 -132 -153 -155 -153 -21 0 -92 97 -106 145 -13 45 -4 76 40 143 34 49 -1 42 -42 -9 -53 -67 -75 -85 -116 -97 -46 -14 -227 -15 -402 -2 -68 5 -125 8 -126 7 -1 -1 47 -46 105 -100 223 -205 342 -253 661 -264 156 -5 184 -4 257 15 245 62 384 206 483 502 57 173 73 294 74 575 1 170 -3 273 -12 322 -12 63 -12 79 2 127 22 74 20 161 -4 214 -11 24 -24 41 -29 38 -5 -4 -13 -1 -17 5 -4 8 -3 9 4 5 18 -11 14 10 -5 25 -14 12 -16 12 -8 0 5 -9 4 -12 -3 -7 -6 4 -9 12 -6 19 2 7 -26 42 -63 78 -119 115 -240 194 -336 220 -34 9 -383 20 -391 12z m528 -1105 l7 -23 11 23 c30 61 108 -21 108 -113 0 -45 -16 -84 -48 -117 -20 -22 -35 -28 -70 -28 -54 0 -77 12 -98 52 -19 36 -20 117 -3 150 16 32 60 78 75 78 6 0 15 -10 18 -22z"/> <path d="M963 1774 c15 -8 27 -18 27 -23 0 -11 -27 -10 -101 5 -63 13 -170 12 -396 -1 -155 -9 -212 -48 -250 -170 -16 -54 -18 -101 -18 -485 0 -417 0 -426 23 -499 19 -61 33 -83 75 -126 47 -46 60 -53 117 -64 36 -7 160 -13 275 -14 198 -2 212 -1 250 20 22 11 50 32 61 45 54 58 89 178 82 278 -4 54 -4 54 -7 -15 -1 -38 -6 -78 -10 -88 -4 -11 -7 165 -7 390 0 224 -2 450 -6 501 -3 50 -4 92 -2 92 2 0 8 -15 14 -32 10 -32 10 -32 4 7 -6 38 -31 95 -56 125 -23 27 -79 70 -91 70 -7 -1 0 -8 16 -16z m-66 -140 c43 -12 57 -51 61 -164 3 -117 -11 -164 -58 -187 -32 -16 -250 -17 -283 -2 -32 14 -46 47 -54 119 -9 87 4 165 33 200 20 23 35 30 72 33 83 6 206 7 229 1z m-364 -17 c3 -8 6 -127 6 -265 l2 -252 -35 0 -36 0 -2 216 -3 215 -60 -45 c-33 -25 -63 -46 -67 -46 -5 0 -8 19 -8 43 0 41 2 44 73 95 72 52 119 66 130 39z m387 -415 c16 -16 32 -45 35 -65 7 -35 9 -37 46 -37 l39 0 0 -192 c0 -185 -1 -193 -22 -216 -13 -14 -18 -22 -12 -19 18 10 24 -17 13 -60 -7 -27 -16 -39 -30 -40 -23 -2 -23 1 -4 31 15 23 11 56 -6 56 -6 0 -6 -8 0 -19 8 -14 6 -23 -9 -39 -18 -19 -18 -21 -1 -36 10 -9 20 -15 22 -14 2 2 -1 -2 -8 -8 -7 -6 -13 -17 -14 -25 0 -8 -4 -5 -9 6 -8 19 -9 19 -9 -2 -1 -29 -47 -53 -85 -46 -15 3 -31 2 -35 -3 -9 -13 -391 -1 -417 14 -12 6 -25 8 -29 4 -5 -4 -5 -2 -2 5 4 6 16 9 26 6 10 -3 22 0 25 6 4 6 -4 9 -23 6 -17 -2 -35 2 -41 10 -10 11 -4 13 34 10 49 -5 63 9 21 19 -53 13 -92 -13 -63 -42 7 -7 9 -12 5 -12 -10 0 -68 62 -79 85 -5 11 1 8 12 -7 12 -16 26 -28 31 -28 8 0 2 8 -46 61 -20 21 -19 35 0 19 8 -7 15 -9 15 -4 0 5 5 2 11 -6 9 -12 10 -12 5 3 -3 10 -6 24 -6 30 0 9 -2 9 -8 0 -5 -8 -12 -8 -27 3 -18 13 -19 30 -23 228 l-4 213 74 2 c78 2 107 -11 94 -44 -8 -21 -3 -19 23 11 21 24 21 25 3 19 -11 -3 -23 -2 -26 3 -3 5 6 10 19 10 34 0 38 -11 15 -38 -11 -13 -20 -32 -19 -44 1 -18 3 -17 12 6 l11 27 11 -22 c6 -13 19 -22 33 -21 12 1 19 -3 16 -7 -3 -5 -9 -7 -14 -4 -5 3 -11 1 -14 -4 -8 -13 -80 -11 -88 2 -4 7 -18 -2 -37 -22 -17 -18 -28 -37 -25 -42 3 -5 0 -9 -5 -9 -16 0 -13 21 6 42 15 17 15 18 0 13 -14 -6 -17 3 -20 57 -2 34 -3 -25 -1 -132 3 -205 10 -278 28 -296 46 -45 158 -46 172 -2 5 17 8 18 15 7 6 -10 9 -5 7 16 -5 83 3 213 15 228 11 16 15 15 47 -8 33 -23 44 -25 165 -26 75 -1 122 -5 110 -10 -17 -6 -17 -8 -2 -8 14 -1 17 -11 17 -58 0 -65 -7 -82 -35 -84 -46 -5 -191 2 -201 9 -6 4 -15 26 -19 49 -6 41 -6 42 27 46 32 4 32 4 -7 5 -30 2 -36 5 -27 14 7 7 12 16 12 21 0 5 -8 0 -17 -12 -25 -29 -67 -19 -60 16 2 13 0 26 -5 29 -6 4 -7 -24 -3 -77 4 -46 8 -95 9 -109 1 -28 68 -103 77 -88 4 6 12 8 18 4 18 -12 228 -8 251 4 43 23 50 64 50 305 l0 225 -34 0 c-26 0 -36 5 -41 20 -6 19 -15 20 -126 20 -72 0 -120 -4 -120 -10 -1 -5 -2 -15 -3 -22 -1 -8 34 -11 127 -9 l129 2 -5 -86 c-3 -58 -8 -90 -17 -95 -18 -11 -216 -8 -227 3 -4 5 -9 45 -10 90 l-1 82 -36 3 c-40 4 -40 1 -36 -91 1 -21 -2 -62 -6 -90 l-7 -52 -12 30 c-7 16 -10 36 -7 44 3 8 1 12 -4 8 -6 -3 -15 3 -22 13 -9 15 -8 19 4 24 26 10 36 7 30 -9 -3 -8 -1 -25 4 -37 8 -20 9 -19 9 12 1 20 -5 42 -11 49 -9 9 -9 12 -1 7 8 -4 10 6 8 36 -2 25 2 49 10 58 7 8 15 31 19 51 6 36 26 61 56 72 8 3 70 6 138 6 123 1 124 1 152 -27z m-462 -324 c13 -13 17 -185 4 -205 -4 -7 -21 -11 -37 -10 l-30 2 -2 100 c0 56 3 105 9 113 13 15 40 16 56 0z"/> <path d="M641 1536 c-8 -9 -11 -42 -9 -93 l3 -78 125 0 125 0 0 90 0 90 -116 3 c-91 2 -119 0 -128 -12z"/> </g> </svg> 