<svg version="1.0" xmlns="http://www.w3.org/2000/svg"  width="980.000000pt" height="861.000000pt" viewBox="0 0 980.000000 861.000000"  preserveAspectRatio="xMidYMid meet"> <metadata> Created by potrace 1.16, written by Peter Selinger 2001-2019 </metadata> <g transform="translate(0.000000,861.000000) scale(0.100000,-0.100000)" fill="#000000" stroke="none"> <path d="M1099 7990 c-95 -16 -143 -57 -141 -123 0 -23 68 -352 152 -732 83 -379 198 -906 256 -1170 95 -432 108 -483 132 -509 30 -32 95 -65 128 -66 32 0 50 -26 28 -38 -12 -7 12 -8 76 -5 52 2 100 9 107 15 8 6 57 9 125 8 62 -2 138 -1 168 1 30 2 -33 6 -140 9 l-195 6 218 2 c168 2 217 -1 217 -10 0 -10 46 -12 205 -10 181 2 205 1 205 -13 0 -14 -24 -15 -205 -13 -159 2 -205 0 -205 -9 0 -10 541 -13 2670 -13 l2670 0 0 35 0 35 193 -2 192 -2 -180 -6 -180 -5 140 -7 c77 -3 156 -10 175 -14 55 -11 146 -7 172 7 22 13 22 14 -17 20 l-40 6 36 2 c20 0 55 -6 78 -14 22 -8 41 -10 41 -5 0 6 -8 10 -17 11 -10 0 7 7 37 15 38 10 67 26 92 52 l38 37 144 660 c80 363 195 887 256 1165 61 278 112 526 113 551 2 56 -17 82 -83 113 l-45 21 -3785 1 c-2082 1 -3806 -2 -3831 -6z m5361 -200 c-113 -3 -207 -7 -210 -9 -3 -1 9 -9 25 -16 l30 -14 -33 -1 c-20 0 -31 -4 -27 -10 3 -5 1 -10 -4 -10 -6 0 -11 -18 -11 -39 0 -29 -5 -41 -17 -44 -10 -3 -3 -5 16 -6 19 0 31 -4 27 -8 -3 -4 -28 -6 -54 -6 l-47 1 55 -9 c135 -24 362 -73 493 -108 78 -21 183 -49 232 -61 102 -26 125 -38 67 -36 -22 0 -39 3 -37 6 2 3 -11 6 -28 7 -90 6 -159 13 -226 22 -115 17 -462 14 -546 -4 -173 -39 -222 -46 -275 -40 -64 7 -254 39 -357 60 -40 8 -76 15 -81 15 -13 0 -11 -34 2 -42 6 -5 -4 -5 -21 -2 -26 5 -33 3 -33 -10 0 -9 3 -16 8 -16 13 0 62 -50 62 -65 0 -7 -8 -16 -17 -18 -10 -3 -2 -6 17 -7 31 -3 30 -4 -15 -10 -32 -4 16 -7 129 -8 237 -2 386 -18 526 -54 63 -16 189 -38 279 -49 92 -11 250 -39 358 -64 340 -80 390 -86 843 -110 306 -16 504 -35 650 -60 81 -14 188 -40 195 -47 2 -2 -11 -75 -30 -163 -72 -346 -107 -500 -115 -503 -4 -2 -7 -11 -5 -20 1 -9 0 -11 -2 -4 -3 6 -9 12 -15 12 -5 0 -8 7 -4 15 4 12 2 13 -13 6 -10 -6 -20 -9 -22 -6 -11 10 -374 55 -520 64 -157 10 -281 31 -394 67 -46 14 -100 24 -225 41 -25 3 -47 9 -50 12 -3 4 -27 12 -55 19 -88 22 -185 55 -185 64 0 4 5 8 11 8 5 0 7 5 3 11 -4 8 -9 7 -15 -2 -7 -11 -14 -8 -31 14 -13 15 -30 29 -38 30 -22 4 -40 17 -40 29 0 5 7 7 16 4 8 -3 12 -2 9 4 -3 6 -15 10 -26 10 -11 0 -18 -3 -16 -7 3 -5 -9 -9 -26 -9 l-31 -1 37 19 c41 20 49 33 16 23 -13 -4 -19 -3 -16 2 8 13 -301 116 -408 137 -44 9 -167 30 -274 46 -257 40 -323 58 -515 141 -196 84 -283 107 -605 159 -352 58 -440 84 -689 199 -156 73 -510 192 -737 250 -334 84 -866 176 -1180 204 -22 2 963 3 2190 3 1227 0 2138 -3 2025 -6z m-4717 -396 c9 -4 17 -14 17 -23 1 -14 2 -14 11 2 12 20 47 23 55 4 5 -15 64 -11 64 4 0 12 67 11 75 -1 4 -6 -10 -10 -35 -10 -29 0 -40 -4 -37 -12 4 -13 25 -13 107 -4 19 3 27 2 18 0 -37 -11 -16 -24 36 -24 30 0 56 -5 58 -11 3 -8 25 -8 78 0 52 7 76 7 81 -1 10 -16 85 -27 189 -28 84 0 97 -2 108 -20 12 -20 46 -27 56 -11 9 14 599 24 691 12 44 -6 107 -13 140 -17 41 -4 54 -9 40 -14 -11 -4 26 -9 87 -13 59 -4 126 -13 150 -22 24 -8 58 -15 76 -15 17 0 32 -4 32 -8 0 -4 28 -14 61 -22 34 -7 69 -21 77 -31 11 -12 24 -16 39 -13 15 4 23 2 23 -6 0 -8 8 -10 21 -7 13 4 19 1 16 -6 -3 -8 10 -13 36 -14 22 -2 43 -7 47 -13 3 -5 22 -16 43 -25 20 -8 37 -21 37 -29 0 -8 9 -16 20 -19 11 -3 18 -1 14 4 -8 13 5 10 51 -11 22 -10 33 -19 25 -20 -8 0 -2 -8 15 -17 17 -10 34 -16 39 -15 5 2 16 -3 25 -10 29 -23 58 -37 95 -43 20 -4 36 -11 36 -16 0 -5 9 -9 21 -9 11 0 18 3 16 8 -8 12 53 6 65 -6 7 -7 20 -12 31 -12 10 0 35 -11 55 -25 26 -18 31 -25 18 -25 -15 0 -16 -3 -6 -15 14 -17 40 -20 40 -4 0 6 6 9 12 7 7 -3 13 -10 13 -17 0 -16 33 -41 54 -41 9 0 27 -9 41 -20 14 -11 31 -20 38 -20 8 0 25 -9 39 -20 14 -11 33 -20 42 -20 23 0 104 -43 130 -69 12 -12 26 -19 32 -16 11 7 39 -12 39 -26 0 -5 -7 -9 -16 -9 -11 0 -8 -9 13 -37 l28 -37 6 40 6 39 2 -47 c1 -41 -2 -48 -18 -48 -11 0 -21 -5 -23 -11 -6 -18 -100 -31 -125 -18 -13 7 -26 9 -30 6 -3 -4 1 -7 11 -7 9 0 15 -4 11 -10 -3 -5 -15 -6 -28 -1 -37 14 -124 23 -107 12 22 -15 16 -14 -98 19 -57 16 -222 57 -365 90 -144 34 -273 67 -287 75 -14 7 -52 20 -85 30 -33 9 -69 21 -80 26 -11 5 -40 11 -65 14 -25 2 -88 15 -140 28 -52 14 -129 30 -170 36 -41 7 -103 19 -137 27 -34 8 -71 14 -83 14 -11 0 -20 5 -20 10 0 6 -10 10 -22 10 -13 1 -41 8 -63 16 -22 9 -65 20 -95 25 -30 6 -59 14 -65 18 -5 5 -26 11 -45 14 -19 2 -69 15 -110 27 -41 12 -93 24 -115 27 -22 3 -42 9 -45 13 -5 8 -141 40 -190 44 -91 9 -150 20 -150 27 0 5 -24 9 -52 10 -42 1 -48 3 -28 9 24 8 24 8 3 9 -16 1 -23 7 -23 20 0 15 -10 21 -40 26 -21 4 -48 4 -60 0 -11 -4 -20 -2 -20 4 0 6 -7 11 -15 11 -9 0 -18 7 -21 15 -3 8 -22 17 -42 21 -34 6 -106 34 -142 55 -15 9 -24 13 -72 31 -16 6 -28 17 -28 24 0 10 -13 14 -40 14 -22 0 -40 4 -40 8 0 4 -17 14 -37 21 -21 8 -40 17 -43 20 -9 11 -50 31 -64 31 -8 0 -16 -6 -19 -12 -2 -7 -8 -9 -13 -5 -5 4 -2 12 6 17 11 6 7 14 -18 35 -32 26 -44 52 -19 41 6 -3 20 -9 30 -12z"/> <path d="M1846 5024 c-20 -19 -23 -183 -4 -202 8 -8 66 -12 194 -12 221 0 214 -4 214 111 0 120 2 119 -214 119 -145 0 -177 -3 -190 -16z"/> <path d="M2300 5020 c-16 -16 -20 -33 -20 -93 0 -119 -4 -117 214 -117 128 0 186 4 194 12 8 8 12 46 12 105 0 81 -2 94 -19 103 -12 6 -92 10 -190 10 -158 0 -173 -2 -191 -20z"/> <path d="M2770 5033 c-8 -3 -18 -11 -22 -17 -13 -19 -9 -181 4 -194 8 -8 66 -12 194 -12 222 0 214 -4 214 115 0 116 2 115 -210 114 -91 0 -172 -3 -180 -6z"/> <path d="M3210 5020 c-16 -16 -20 -33 -20 -93 0 -119 -4 -117 214 -117 128 0 186 4 194 12 8 8 12 46 12 105 0 81 -2 94 -19 103 -12 6 -92 10 -190 10 -158 0 -173 -2 -191 -20z"/> <path d="M3666 5024 c-12 -12 -16 -37 -16 -104 0 -78 2 -91 19 -100 12 -6 93 -10 195 -10 213 0 206 -4 206 115 0 117 3 115 -217 115 -143 0 -174 -3 -187 -16z"/> <path d="M4120 5020 c-16 -16 -20 -33 -20 -93 0 -119 -4 -117 214 -117 128 0 186 4 194 12 8 8 12 46 12 105 0 81 -2 94 -19 103 -12 6 -92 10 -190 10 -158 0 -173 -2 -191 -20z"/> <path d="M4590 5033 c-26 -10 -30 -25 -30 -115 0 -76 2 -89 19 -98 12 -6 93 -10 195 -10 213 0 206 -4 206 115 0 116 2 115 -210 114 -91 0 -172 -3 -180 -6z"/> <path d="M5030 5020 c-16 -16 -20 -33 -20 -93 0 -119 -4 -117 214 -117 128 0 186 4 194 12 8 8 12 46 12 105 0 81 -2 94 -19 103 -12 6 -92 10 -190 10 -158 0 -173 -2 -191 -20z"/> <path d="M5492 5024 c-20 -14 -22 -23 -22 -104 0 -78 2 -91 19 -100 12 -6 93 -10 195 -10 213 0 206 -4 206 115 0 116 2 115 -210 115 -134 0 -170 -3 -188 -16z"/> <path d="M5945 5026 c-27 -20 -35 -154 -11 -191 l16 -25 183 0 c129 0 187 4 195 12 8 8 12 46 12 105 0 81 -2 94 -19 103 -31 16 -353 13 -376 -4z"/> <path d="M6402 5024 c-20 -14 -22 -23 -22 -104 0 -78 2 -91 19 -100 12 -6 93 -10 195 -10 213 0 206 -4 206 115 0 116 2 115 -210 115 -134 0 -170 -3 -188 -16z"/> <path d="M6854 5026 c-16 -12 -19 -27 -19 -99 0 -56 4 -89 14 -100 12 -15 38 -17 195 -17 128 0 186 4 194 12 8 8 12 46 12 105 0 81 -2 94 -19 103 -32 16 -353 13 -377 -4z"/> <path d="M7312 5024 c-20 -14 -22 -24 -22 -99 0 -119 -7 -115 210 -115 217 0 210 -4 210 115 0 116 2 115 -210 115 -134 0 -170 -3 -188 -16z"/> <path d="M7765 5027 c-18 -14 -20 -26 -18 -102 1 -50 6 -92 13 -100 16 -19 180 -21 198 -3 14 14 16 176 2 198 -14 22 -167 27 -195 7z"/> <path d="M1842 4758 c-8 -8 -12 -61 -12 -173 0 -112 4 -165 12 -173 8 -8 64 -12 185 -12 160 0 173 1 183 19 5 11 10 84 10 166 0 82 -5 155 -10 166 -10 18 -23 19 -183 19 -121 0 -177 -4 -185 -12z"/> <path d="M2260 4745 c-6 -15 -10 -86 -10 -160 0 -74 4 -145 10 -160 l10 -25 182 2 183 3 0 180 0 180 -183 3 -182 2 -10 -25z"/> <path d="M2692 4758 c-17 -17 -17 -329 0 -346 17 -17 349 -17 366 0 17 17 17 329 0 346 -17 17 -349 17 -366 0z"/> <path d="M3122 4758 c-17 -17 -17 -329 0 -346 8 -8 64 -12 185 -12 160 0 173 1 183 19 5 11 10 84 10 166 0 82 -5 155 -10 166 -10 18 -23 19 -183 19 -121 0 -177 -4 -185 -12z"/> <path d="M3540 4751 c-5 -11 -10 -84 -10 -166 0 -82 5 -155 10 -166 10 -18 23 -19 183 -19 121 0 177 4 185 12 17 17 17 329 0 346 -8 8 -64 12 -185 12 -160 0 -173 -1 -183 -19z"/> <path d="M3972 4758 c-17 -17 -17 -329 0 -346 17 -17 349 -17 366 0 17 17 17 329 0 346 -17 17 -349 17 -366 0z"/> <path d="M4391 4748 c-8 -22 -4 -309 4 -335 3 -10 49 -13 185 -13 l180 0 10 26 c6 14 10 85 10 159 0 74 -4 145 -10 159 l-10 26 -180 0 c-178 0 -181 0 -189 -22z"/> <path d="M4820 4751 c-15 -29 -13 -324 2 -339 17 -17 349 -17 366 0 8 8 12 61 12 173 0 112 -4 165 -12 173 -8 8 -64 12 -185 12 -160 0 -173 -1 -183 -19z"/> <path d="M5252 4758 c-8 -8 -12 -61 -12 -173 0 -112 4 -165 12 -173 8 -8 64 -12 185 -12 160 0 173 1 183 19 5 11 10 84 10 166 0 82 -5 155 -10 166 -10 18 -23 19 -183 19 -121 0 -177 -4 -185 -12z"/> <path d="M5670 4751 c-13 -26 -13 -306 0 -332 10 -18 23 -19 190 -19 178 0 180 0 185 23 3 12 4 94 3 182 l-3 160 -182 3 c-172 2 -183 1 -193 -17z"/> <path d="M6102 4758 c-8 -8 -12 -61 -12 -173 0 -112 4 -165 12 -173 17 -17 349 -17 366 0 8 8 12 61 12 173 0 112 -4 165 -12 173 -17 17 -349 17 -366 0z"/> <path d="M6524 4757 c-2 -7 -3 -89 -2 -182 l3 -170 180 -3 c160 -2 181 -1 192 15 16 21 18 305 3 334 -10 18 -23 19 -191 19 -137 0 -181 -3 -185 -13z"/> <path d="M6950 4751 c-5 -11 -10 -84 -10 -166 0 -82 5 -155 10 -166 10 -18 23 -19 183 -19 121 0 177 4 185 12 8 8 12 61 12 173 0 112 -4 165 -12 173 -8 8 -64 12 -185 12 -160 0 -173 -1 -183 -19z"/> <path d="M7382 4758 c-8 -8 -12 -61 -12 -173 0 -112 4 -165 12 -173 17 -17 559 -17 576 0 8 8 12 61 12 173 0 112 -4 165 -12 173 -17 17 -559 17 -576 0z"/> <path d="M1848 4349 c-16 -9 -18 -29 -18 -179 0 -157 1 -170 19 -180 12 -6 120 -10 281 -10 161 0 269 4 281 10 18 10 19 23 19 180 0 157 -1 170 -19 180 -26 13 -540 13 -563 -1z"/> <path d="M2482 4348 c-8 -8 -12 -63 -12 -180 0 -155 1 -168 19 -178 11 -6 88 -10 179 -10 141 0 161 2 175 18 14 16 17 43 17 174 0 137 -2 157 -18 171 -16 14 -44 17 -183 17 -115 0 -169 -4 -177 -12z"/> <path d="M2906 4338 c-13 -18 -16 -52 -16 -168 0 -202 -13 -190 199 -190 116 0 171 4 179 12 17 17 17 339 0 356 -8 8 -63 12 -179 12 -162 0 -168 -1 -183 -22z"/> <path d="M3336 4344 c-13 -13 -16 -43 -16 -174 0 -131 3 -161 16 -174 23 -24 335 -24 358 0 24 23 24 325 0 348 -23 24 -335 24 -358 0z"/> <path d="M3762 4348 c-17 -17 -17 -339 0 -356 8 -8 63 -12 179 -12 212 0 199 -12 199 190 0 202 13 190 -199 190 -116 0 -171 -4 -179 -12z"/> <path d="M4187 4342 c-14 -16 -17 -43 -17 -174 0 -137 2 -157 18 -171 16 -14 44 -17 176 -17 89 0 166 4 177 10 18 10 19 23 19 180 0 157 -1 170 -19 180 -11 6 -88 10 -179 10 -141 0 -161 -2 -175 -18z"/> <path d="M4618 4349 c-16 -9 -18 -29 -18 -179 0 -157 1 -170 19 -180 11 -6 88 -10 180 -10 132 0 162 3 175 16 24 23 24 325 0 348 -13 13 -43 16 -177 16 -91 0 -170 -5 -179 -11z"/> <path d="M5039 4343 c-11 -12 -14 -55 -14 -173 0 -118 3 -161 14 -173 11 -15 37 -17 180 -17 117 0 171 4 179 12 8 8 12 62 12 178 0 116 -4 170 -12 178 -8 8 -62 12 -179 12 -143 0 -168 -2 -180 -17z"/> <path d="M5466 4344 c-13 -13 -16 -43 -16 -174 0 -131 3 -161 16 -174 23 -24 335 -24 358 0 24 23 24 325 0 348 -13 13 -44 16 -179 16 -135 0 -166 -3 -179 -16z"/> <path d="M5892 4348 c-8 -8 -12 -62 -12 -178 0 -116 4 -170 12 -178 8 -8 63 -12 179 -12 212 0 199 -12 199 190 0 202 13 190 -199 190 -116 0 -171 -4 -179 -12z"/> <path d="M6316 4338 c-13 -18 -16 -52 -16 -168 0 -201 -12 -190 191 -190 91 0 169 4 180 10 18 10 19 23 19 178 0 117 -4 172 -12 180 -8 8 -63 12 -179 12 -162 0 -168 -1 -183 -22z"/> <path d="M6746 4344 c-13 -13 -16 -43 -16 -174 0 -131 3 -161 16 -174 23 -24 335 -24 358 0 24 23 24 325 0 348 -13 13 -44 16 -179 16 -135 0 -166 -3 -179 -16z"/> <path d="M7172 4348 c-8 -8 -12 -62 -12 -178 0 -116 4 -170 12 -178 8 -8 62 -12 179 -12 143 0 169 2 180 17 11 12 14 55 14 173 0 118 -3 161 -14 173 -11 15 -37 17 -180 17 -117 0 -171 -4 -179 -12z"/> <path d="M7597 4342 c-14 -16 -17 -43 -17 -174 0 -137 2 -157 18 -171 16 -14 44 -17 176 -17 89 0 166 4 177 10 18 10 19 23 19 180 0 157 -1 170 -19 180 -11 6 -88 10 -179 10 -141 0 -161 -2 -175 -18z"/> <path d="M1842 3928 c-8 -8 -12 -61 -12 -173 0 -112 4 -165 12 -173 9 -9 99 -12 345 -12 318 0 333 1 343 19 5 11 10 84 10 166 0 82 -5 155 -10 166 -10 18 -25 19 -343 19 -246 0 -336 -3 -345 -12z"/> <path d="M2580 3914 c-6 -14 -10 -85 -10 -159 0 -74 4 -145 10 -159 l10 -26 173 0 c121 0 177 4 185 12 17 17 17 329 0 346 -8 8 -64 12 -185 12 l-173 0 -10 -26z"/> <path d="M3012 3928 c-17 -17 -17 -329 0 -346 17 -17 349 -17 366 0 17 17 17 329 0 346 -17 17 -349 17 -366 0z"/> <path d="M3442 3928 c-17 -17 -17 -329 0 -346 8 -8 64 -12 185 -12 l173 0 10 26 c6 14 10 85 10 159 0 74 -4 145 -10 159 l-10 26 -173 0 c-121 0 -177 -4 -185 -12z"/> <path d="M3860 3921 c-5 -11 -10 -84 -10 -166 0 -82 5 -155 10 -166 10 -18 23 -19 183 -19 121 0 177 4 185 12 17 17 17 329 0 346 -8 8 -64 12 -185 12 -160 0 -173 -1 -183 -19z"/> <path d="M4292 3928 c-17 -17 -17 -329 0 -346 8 -8 64 -12 185 -12 160 0 173 1 183 19 5 11 10 84 10 166 0 82 -5 155 -10 166 -10 18 -23 19 -183 19 -121 0 -177 -4 -185 -12z"/> <path d="M4715 3927 c-3 -7 -4 -89 -3 -182 l3 -170 185 0 185 0 0 180 0 180 -183 3 c-143 2 -184 0 -187 -11z"/> <path d="M5142 3928 c-15 -15 -17 -310 -2 -339 10 -18 23 -19 183 -19 121 0 177 4 185 12 8 8 12 61 12 173 0 112 -4 165 -12 173 -17 17 -349 17 -366 0z"/> <path d="M5572 3928 c-8 -8 -12 -61 -12 -173 0 -112 4 -165 12 -173 8 -8 64 -12 185 -12 160 0 173 1 183 19 5 11 10 84 10 166 0 82 -5 155 -10 166 -10 18 -23 19 -183 19 -121 0 -177 -4 -185 -12z"/> <path d="M5990 3914 c-13 -34 -13 -300 0 -325 10 -18 23 -19 183 -19 121 0 177 4 185 12 8 8 12 61 12 173 0 112 -4 165 -12 173 -8 8 -64 12 -185 12 l-173 0 -10 -26z"/> <path d="M6422 3928 c-8 -8 -12 -61 -12 -173 0 -112 4 -165 12 -173 17 -17 349 -17 366 0 8 8 12 61 12 173 0 112 -4 165 -12 173 -17 17 -349 17 -366 0z"/> <path d="M6852 3928 c-8 -8 -12 -61 -12 -173 0 -112 4 -165 12 -173 8 -8 64 -12 185 -12 171 0 174 0 182 23 12 32 14 289 2 320 l-11 27 -173 0 c-121 0 -177 -4 -185 -12z"/> <path d="M7270 3921 c-5 -11 -10 -84 -10 -166 0 -82 5 -155 10 -166 10 -18 25 -19 343 -19 246 0 336 3 345 12 17 17 17 329 0 346 -9 9 -99 12 -345 12 -318 0 -333 -1 -343 -19z"/> <path d="M1848 3519 c-16 -9 -18 -29 -18 -179 0 -157 1 -170 19 -180 13 -6 171 -10 445 -10 373 0 426 2 440 16 13 13 16 43 16 174 0 131 -3 161 -16 174 -14 14 -67 16 -442 16 -271 0 -433 -4 -444 -11z"/> <path d="M2808 3519 c-16 -9 -18 -29 -18 -179 0 -157 1 -170 19 -180 11 -6 89 -10 180 -10 203 0 191 -11 191 190 0 202 12 190 -193 190 -91 0 -170 -5 -179 -11z"/> <path d="M3226 3508 c-13 -18 -16 -52 -16 -168 0 -201 -12 -190 191 -190 91 0 169 4 180 10 18 10 19 23 19 180 0 157 -1 170 -19 180 -11 6 -89 10 -180 10 -154 0 -160 -1 -175 -22z"/> <path d="M3656 3514 c-13 -13 -16 -43 -16 -174 0 -131 3 -161 16 -174 23 -24 335 -24 358 0 24 23 24 325 0 348 -23 24 -335 24 -358 0z"/> <path d="M4082 3518 c-8 -8 -12 -63 -12 -180 0 -155 1 -168 19 -178 29 -15 334 -13 349 2 17 17 17 339 0 356 -17 17 -339 17 -356 0z"/> <path d="M4507 3512 c-14 -16 -17 -43 -17 -174 0 -137 2 -157 18 -171 16 -14 44 -17 176 -17 89 0 166 4 177 10 18 10 19 23 19 180 0 157 -1 170 -19 180 -11 6 -88 10 -179 10 -141 0 -161 -2 -175 -18z"/> <path d="M4938 3519 c-16 -9 -18 -29 -18 -179 0 -157 1 -170 19 -180 11 -6 88 -10 179 -10 141 0 161 2 175 18 14 16 17 43 17 174 0 137 -2 157 -18 171 -16 14 -43 17 -178 17 -89 0 -167 -5 -176 -11z"/> <path d="M5359 3513 c-20 -23 -20 -323 0 -347 11 -14 38 -16 180 -16 117 0 171 4 179 12 8 8 12 62 12 178 0 116 -4 170 -12 178 -8 8 -62 12 -179 12 -143 0 -168 -2 -180 -17z"/> <path d="M5786 3514 c-13 -13 -16 -43 -16 -174 0 -131 3 -161 16 -174 23 -24 335 -24 358 0 24 23 24 325 0 348 -13 13 -44 16 -179 16 -135 0 -166 -3 -179 -16z"/> <path d="M6218 3519 c-16 -9 -18 -29 -18 -179 0 -157 1 -170 19 -180 11 -6 89 -10 180 -10 203 0 191 -11 191 190 0 202 12 190 -193 190 -91 0 -170 -5 -179 -11z"/> <path d="M6636 3508 c-13 -18 -16 -52 -16 -168 0 -201 -12 -190 191 -190 91 0 169 4 180 10 18 10 19 23 19 180 0 157 -1 170 -19 180 -11 6 -89 10 -180 10 -154 0 -160 -1 -175 -22z"/> <path d="M7066 3514 c-13 -13 -16 -43 -16 -174 0 -131 3 -161 16 -174 14 -14 67 -16 440 -16 274 0 432 4 445 10 18 10 19 23 19 180 0 157 -1 170 -19 180 -13 6 -171 10 -445 10 -373 0 -426 -2 -440 -16z"/> <path d="M1842 3098 c-8 -8 -12 -61 -12 -173 0 -112 4 -165 12 -173 8 -8 64 -12 185 -12 160 0 173 1 183 19 5 11 10 84 10 166 0 82 -5 155 -10 166 -10 18 -23 19 -183 19 -121 0 -177 -4 -185 -12z"/> <path d="M2264 3097 c-2 -7 -3 -89 -2 -182 l3 -170 174 -3 c119 -2 178 1 187 9 11 9 14 47 14 169 0 87 -3 165 -6 174 -5 14 -31 16 -185 16 -137 0 -181 -3 -185 -13z"/> <path d="M2692 3098 c-17 -17 -17 -329 0 -346 17 -17 349 -17 366 0 17 17 17 329 0 346 -17 17 -349 17 -366 0z"/> <path d="M3122 3098 c-17 -17 -17 -329 0 -346 17 -17 449 -17 466 0 17 17 17 329 0 346 -17 17 -449 17 -466 0z"/> <path d="M3652 3098 c-17 -17 -17 -329 0 -346 17 -17 2049 -17 2066 0 13 13 18 311 6 342 -6 14 -106 16 -1033 16 -785 0 -1030 -3 -1039 -12z"/> <path d="M5782 3098 c-8 -8 -12 -61 -12 -173 0 -112 4 -165 12 -173 9 -9 76 -12 240 -12 214 0 228 1 238 19 5 11 10 84 10 166 0 82 -5 155 -10 166 -10 18 -24 19 -238 19 -164 0 -231 -3 -240 -12z"/> <path d="M6310 3084 c-13 -34 -13 -300 0 -325 10 -18 23 -19 183 -19 121 0 177 4 185 12 8 8 12 61 12 173 0 112 -4 165 -12 173 -8 8 -64 12 -185 12 l-173 0 -10 -26z"/> <path d="M7167 3103 c-4 -3 -7 -84 -7 -179 0 -147 2 -173 16 -178 27 -10 352 -7 359 4 10 16 13 313 4 338 -8 22 -11 22 -187 22 -98 0 -182 -3 -185 -7z"/> <path d="M6742 2918 c-7 -7 -12 -41 -12 -83 0 -42 5 -76 12 -83 17 -17 349 -17 366 0 7 7 12 40 12 79 0 100 2 99 -199 99 -116 0 -171 -4 -179 -12z"/> <path d="M7596 2914 c-11 -11 -16 -34 -16 -75 0 -102 -6 -99 193 -99 121 0 177 4 185 12 7 7 12 41 12 83 0 42 -5 76 -12 83 -8 8 -63 12 -179 12 -139 0 -170 -3 -183 -16z"/> <path d="M4350 655 c-21 -12 -220 -14 -1347 -15 -889 0 -1324 -3 -1328 -10 -4 -6 19 -23 52 -38 l58 -27 1225 -3 c1205 -3 1227 -2 1350 18 117 20 154 21 585 18 367 -4 468 -7 500 -19 34 -12 233 -14 1310 -14 l1270 0 58 28 c31 16 55 32 52 37 -3 5 -1 10 5 12 5 1 -591 2 -1325 0 -1175 -2 -1339 0 -1365 13 -42 22 -1062 22 -1100 0z"/> </g> </svg> 