<svg version="1.0" xmlns="http://www.w3.org/2000/svg"  width="1600.000000pt" height="900.000000pt" viewBox="0 0 1600.000000 900.000000"  preserveAspectRatio="xMidYMid meet"> <metadata> Created by potrace 1.16, written by Peter Selinger 2001-2019 </metadata> <g transform="translate(0.000000,900.000000) scale(0.100000,-0.100000)" fill="#000000" stroke="none"> <path d="M0 4500 l0 -4500 2615 0 c2608 0 2615 0 2615 20 0 11 -7 20 -15 20 -12 0 -15 20 -15 120 0 100 3 120 15 120 11 0 15 11 15 40 0 29 -4 40 -15 40 -12 0 -15 20 -15 120 0 100 3 120 15 120 11 0 15 11 15 40 0 29 -4 40 -15 40 -12 0 -15 20 -15 120 0 100 3 120 15 120 11 0 15 11 15 40 0 29 -4 40 -15 40 -12 0 -15 20 -15 120 0 100 3 120 15 120 11 0 15 11 15 40 0 29 -4 40 -15 40 -12 0 -15 20 -15 120 0 100 3 120 15 120 11 0 15 11 15 40 0 29 -4 40 -15 40 -12 0 -15 15 -15 78 0 104 22 244 36 230 3 -3 0 -27 -7 -52 -9 -35 -9 -50 0 -59 8 -8 11 -1 12 29 1 40 3 39 13 -8 4 -16 11 -28 17 -28 6 0 6 6 1 18 -6 9 -13 37 -17 62 -4 25 -11 50 -16 56 -5 6 -18 75 -29 155 -12 79 -23 153 -24 164 -2 11 -4 34 -5 50 -1 23 -3 27 -11 15 -5 -8 -10 -28 -10 -45 0 -24 2 -27 11 -15 9 12 10 12 5 -3 -3 -10 -6 -26 -6 -35 -1 -9 -7 1 -15 23 -10 27 -12 47 -6 60 5 11 13 34 16 50 4 17 7 453 6 970 0 517 2 960 6 984 l6 43 66 -5 c39 -3 58 -1 46 4 -12 5 22 8 90 9 61 0 142 4 180 9 51 6 20 7 -110 5 -113 -2 -171 0 -155 5 25 9 25 9 2 10 -13 1 -20 5 -17 11 3 6 -1 7 -10 3 -13 -5 -14 -7 -3 -14 8 -6 -2 -9 -29 -9 -47 0 -61 19 -15 21 15 0 21 3 15 6 -8 2 -13 22 -13 44 0 28 -4 39 -15 39 -12 0 -15 20 -15 120 0 100 3 120 15 120 11 0 15 11 15 40 0 29 -4 40 -15 40 -12 0 -15 20 -15 120 0 100 3 120 15 120 11 0 15 11 15 40 0 29 -4 40 -15 40 -12 0 -15 16 -15 86 0 54 4 83 10 79 6 -3 10 0 10 9 0 8 -6 17 -12 19 -8 3 -6 6 5 6 11 1 17 -6 17 -19 0 -23 6 -25 25 -6 8 8 11 23 7 37 l-6 24 -8 -25 c-7 -22 -7 -21 -4 8 1 17 -1 32 -6 32 -4 0 -8 11 -8 24 0 14 -5 28 -11 31 -9 6 -6 -32 5 -75 0 -3 -3 -5 -8 -5 -13 0 -18 88 -4 96 8 5 8 19 -1 52 -6 25 -11 60 -11 76 0 17 -4 31 -10 31 -12 0 -12 74 0 110 l8 25 2 -25 c1 -14 2 -32 1 -40 -1 -12 0 -12 7 -2 5 7 8 34 6 60 -1 26 -5 98 -8 160 -6 96 -4 112 9 112 11 0 15 11 15 40 0 29 -4 40 -15 40 -12 0 -15 20 -15 120 0 100 3 120 15 120 11 0 15 11 15 40 0 29 -4 40 -15 40 -12 0 -15 20 -15 120 0 100 3 120 15 120 11 0 15 11 15 40 0 29 -4 40 -15 40 -12 0 -15 20 -15 120 0 100 3 120 15 120 11 0 15 11 15 40 0 29 -4 40 -15 40 -12 0 -15 20 -15 120 0 100 3 120 15 120 11 0 15 11 15 40 0 29 -4 40 -15 40 -12 0 -15 20 -15 120 0 100 3 120 15 120 11 0 15 11 15 40 0 29 -4 40 -15 40 -12 0 -15 20 -15 120 0 100 3 120 15 120 11 0 15 11 15 40 0 29 -4 40 -15 40 -12 0 -15 20 -15 120 0 100 3 120 15 120 11 0 15 11 15 40 0 29 -4 40 -15 40 -12 0 -15 20 -15 120 0 100 3 120 15 120 11 0 15 11 15 40 0 29 -4 40 -15 40 -12 0 -15 20 -15 120 0 100 3 120 15 120 11 0 15 11 15 40 l0 40 -2615 0 -2615 0 0 -4500z"/> <path d="M9495 8335 c-5 -2 -22 -6 -37 -9 -67 -15 -14 -40 138 -66 179 -30 279 -78 419 -201 73 -65 117 -90 132 -75 19 19 -78 129 -179 204 -96 71 -224 126 -318 137 -79 9 -145 13 -155 10z"/> <path d="M9410 7890 c-8 -5 -30 -10 -48 -10 -29 0 -68 -15 -82 -31 -3 -3 -21 -11 -40 -19 -19 -8 -42 -21 -50 -29 -8 -8 -34 -23 -57 -33 -23 -10 -46 -24 -50 -31 -4 -7 -23 -25 -42 -40 -46 -38 -111 -121 -111 -141 0 -9 -6 -27 -14 -39 -10 -17 -11 -37 -4 -87 4 -36 9 -76 11 -90 1 -14 4 -27 7 -30 5 -5 12 -30 52 -175 23 -87 37 -365 19 -398 -7 -14 -8 -33 -3 -51 7 -25 19 -33 72 -53 130 -49 319 -41 470 20 67 26 149 78 158 99 2 4 7 8 11 8 11 0 171 156 171 167 0 5 14 25 30 43 17 18 30 41 30 49 0 9 9 22 20 29 12 7 20 23 20 40 0 15 4 32 9 38 5 5 12 30 15 57 3 26 9 67 12 92 4 30 2 45 -5 45 -6 0 -11 16 -11 35 0 19 -7 49 -15 67 -8 18 -19 52 -25 75 -6 23 -17 49 -25 57 -8 8 -15 21 -15 29 0 8 -7 18 -15 21 -9 3 -21 19 -27 36 -5 17 -23 37 -39 46 -16 8 -29 20 -29 28 0 17 -51 61 -108 93 -26 14 -60 36 -77 49 -21 15 -49 24 -90 27 -33 3 -71 8 -85 11 -14 4 -32 2 -40 -4z"/> <path d="M8540 7519 c-21 -12 -44 -39 -57 -65 -72 -141 33 -553 178 -696 40 -40 53 -47 74 -42 18 5 24 3 22 -7 -2 -8 -2 -11 0 -6 3 4 14 7 24 7 11 0 18 -3 16 -7 -3 -5 20 -8 51 -8 l56 0 26 45 c22 41 25 55 24 150 -1 115 -22 214 -75 348 -94 238 -225 347 -339 281z"/> <path d="M6345 6983 c-144 -26 -237 -65 -342 -144 -51 -38 -70 -48 -59 -31 3 5 -1 9 -8 9 -7 0 -13 -6 -13 -13 0 -7 4 -11 9 -8 22 14 4 -16 -23 -39 -31 -25 -66 -30 -61 -7 1 6 -2 9 -8 5 -8 -5 -7 -11 1 -21 9 -11 8 -14 -3 -14 -8 0 -21 -12 -29 -27 -22 -44 -22 -50 -1 -20 19 28 62 64 62 52 0 -4 -9 -18 -20 -32 -24 -31 -26 -53 -4 -53 25 0 55 20 114 73 124 114 255 177 414 202 156 24 204 45 151 65 -25 10 -134 11 -180 3z"/> <path d="M6370 6509 c-36 -17 -76 -37 -90 -44 -14 -7 -29 -22 -35 -34 -5 -12 -13 -21 -18 -21 -4 0 -28 -19 -53 -42 -71 -65 -155 -204 -169 -276 -4 -20 -11 -42 -17 -49 -10 -12 -6 -179 6 -241 3 -18 13 -40 21 -48 8 -9 15 -23 15 -32 0 -10 11 -34 25 -54 14 -20 25 -41 26 -45 1 -13 92 -125 112 -137 10 -6 42 -34 71 -62 45 -42 216 -145 216 -130 0 3 26 -5 58 -16 75 -28 262 -30 332 -3 25 9 55 19 68 22 13 3 22 13 22 24 0 11 6 18 13 16 7 -1 11 6 9 18 -1 11 -3 35 -3 54 -1 19 -4 29 -8 23 -9 -15 -6 209 3 231 5 9 5 28 2 41 -3 14 -2 27 3 30 5 4 12 25 16 49 4 23 19 94 34 157 15 63 27 138 26 165 -1 28 -3 65 -3 83 -1 18 -11 39 -22 49 -11 10 -20 23 -20 30 0 7 -5 13 -11 13 -12 0 -39 25 -39 35 0 13 -65 72 -97 89 -18 9 -33 21 -33 26 0 6 -11 10 -24 10 -14 0 -28 5 -31 10 -8 13 -119 65 -160 75 -16 4 -64 9 -105 12 -69 4 -81 1 -140 -28z"/> <path d="M9540 6493 c-54 -24 -195 -64 -274 -78 -29 -5 -36 -9 -25 -16 8 -5 10 -9 4 -9 -15 0 -20 -188 -20 -718 l1 -472 24 -23 c25 -23 75 -31 200 -31 99 0 134 7 151 32 23 33 32 12 13 -27 -9 -17 -14 -36 -12 -42 5 -16 55 37 67 72 9 27 9 28 -9 19 -27 -14 -30 -13 -28 14 2 19 5 22 15 14 8 -6 16 -8 20 -4 3 3 2 6 -4 6 -6 0 -8 160 -5 458 4 447 -4 664 -29 783 -6 27 -16 49 -22 48 -7 0 -37 -12 -67 -26z"/> <path d="M9045 6228 c-5 -4 -23 -20 -38 -33 -15 -14 -32 -25 -37 -25 -11 0 -111 -101 -165 -166 -22 -27 -50 -59 -62 -72 -13 -12 -23 -30 -23 -38 0 -9 -8 -28 -19 -42 -10 -15 -24 -45 -30 -67 -7 -22 -16 -49 -21 -60 -23 -54 -20 -83 13 -124 18 -22 37 -40 44 -40 6 -1 13 -5 15 -10 2 -5 35 -14 73 -19 98 -14 124 -26 140 -65 13 -33 16 -34 69 -33 31 1 56 -3 57 -9 0 -5 4 0 9 12 12 28 25 661 16 735 -7 55 -21 74 -41 56z"/> <path d="M7279 6161 c-122 -77 -243 -354 -256 -587 -6 -107 3 -155 40 -207 18 -26 23 -28 61 -22 22 4 48 13 57 21 8 8 20 14 25 14 5 0 2 -5 -6 -10 -11 -7 -3 -8 25 -6 111 9 230 214 284 491 21 107 14 217 -18 268 -44 72 -134 88 -212 38z"/> <path d="M6354 5173 c16 -4 17 -11 11 -61 -16 -123 -3 -350 27 -470 14 -60 25 -80 59 -116 23 -24 36 -29 73 -29 55 1 86 11 86 26 0 7 12 23 25 36 14 13 25 28 25 35 0 6 6 23 14 37 23 44 33 118 41 292 2 65 7 122 9 126 7 11 -31 28 -79 36 -56 9 -170 44 -233 72 -29 13 -58 22 -65 22 -7 -1 -4 -3 7 -6z"/> <path d="M5810 4715 c0 -3 25 -16 55 -30 30 -15 55 -30 55 -34 0 -4 17 -13 37 -20 21 -8 43 -20 51 -27 7 -8 21 -14 30 -14 9 0 35 -12 57 -25 22 -14 48 -25 57 -25 9 0 19 -6 21 -12 3 -7 6 8 6 34 1 44 -1 48 -26 54 -109 25 -196 49 -264 74 -43 16 -79 27 -79 25z"/> <path d="M10085 4690 c-135 -58 -342 -93 -621 -106 l-151 -6 -10 68 -10 69 -2 -68 -1 -67 -337 2 -338 3 -3 53 -3 52 -625 0 -624 0 0 -55 0 -55 -235 0 -235 0 0 -75 0 -75 203 -1 c111 -1 211 -3 222 -4 11 -1 28 -2 38 -3 18 -2 24 -36 8 -47 -5 -3 -200 -5 -433 -5 -233 0 -548 -3 -701 -6 l-279 -7 -9 -24 c-4 -12 -13 -23 -18 -23 -5 0 -14 -15 -21 -32 -7 -18 -16 -42 -20 -53 -22 -50 -24 -102 -35 -785 -3 -195 -7 -393 -9 -440 -3 -60 -2 -72 3 -40 7 37 8 26 10 -60 6 -248 33 -487 66 -585 58 -169 82 -224 108 -243 9 -7 17 -19 17 -27 0 -12 40 -63 98 -122 12 -13 22 -26 22 -29 0 -9 158 -166 178 -178 11 -6 41 -26 67 -43 25 -18 53 -33 61 -33 7 0 14 -4 14 -8 0 -5 30 -23 68 -40 49 -23 82 -32 120 -32 28 0 52 -4 52 -9 0 -5 17 -12 38 -15 32 -6 1865 -9 1997 -4 28 1 73 0 100 -2 56 -4 337 29 345 41 3 4 19 10 35 14 53 12 125 39 125 47 0 4 7 8 15 8 8 0 15 4 15 9 0 5 16 18 35 30 19 11 39 31 45 45 5 13 18 27 29 31 11 3 23 15 26 26 4 10 10 19 15 19 16 0 75 65 96 105 12 22 35 55 52 73 17 18 34 46 37 63 4 17 13 33 21 36 8 3 14 14 14 24 0 10 5 19 10 19 6 0 10 13 10 29 0 16 6 36 13 43 8 7 17 30 21 51 4 20 10 37 14 37 25 0 79 293 91 485 4 66 11 128 15 138 5 11 4 17 -4 17 -10 0 -11 55 -8 243 6 288 -6 776 -22 937 -10 100 -27 162 -49 180 -11 9 -31 50 -31 63 0 16 -378 27 -906 27 -273 0 -302 2 -308 17 -4 9 -2 21 4 27 7 7 150 13 428 17 404 6 420 7 527 32 173 41 405 126 405 148 0 5 7 5 17 2 12 -5 14 -3 8 7 -6 9 -4 11 5 5 7 -4 15 -3 19 2 3 6 26 21 50 34 60 33 80 45 88 53 10 10 2 7 -72 -24z m-1511 -74 c4 -19 4 -46 0 -60 l-6 -25 -581 2 -582 2 -3 44 c-6 77 -56 71 587 71 l579 0 6 -34z"/> </g> </svg> 